# xmcd
#
# Track frame offsets:
#  151
#  20239
#  37410
#  56124
#  72127
#  91664
#  112885
#  132920
#  148439
#  169164
#  189443
#  204233
#  221050
#  240874
#  261509
#
# Disc length: 3743 seconds
#
# Revision: 0
# Processed by: cddbd v1.4PL0 Copyright (c) Steve Scherf et al.
# Submitted via: AltoMP3_Maker 3.0
#
DISCID=e40e9d0f
DTITLE=欧美伤感情歌 - 欧美伤感情歌
DYEAR=1900
DGENRE=
TTITLE0=坚定信念
TTITLE1=我彩色的爱
TTITLE2=原因
TTITLE3=答应我
TTITLE4=我发誓
TTITLE5=因为爱你
TTITLE6=此情可待
TTITLE7=没有你
TTITLE8=爱的力量
TTITLE9=永恒的爱
TTITLE10=亲爱的你
TTITLE11=因为你的爱改变我
TTITLE12=你是唯一的爱
TTITLE13=必须有爱
TTITLE14=如果没有你我将无法生活
EXTD=
EXTT0=
EXTT1=
EXTT2=
EXTT3=
EXTT4=
EXTT5=
EXTT6=
EXTT7=
EXTT8=
EXTT9=
EXTT10=
EXTT11=
EXTT12=
EXTT13=
EXTT14=
PLAYORDER=
